HIERARCHY
ROOT Hips
{
	OFFSET -3.958830 18.904000 13.208200
	CHANNELS 6 Xposition Yposition Zposition Zrotation Yrotation Xrotation 
	JOINT LHipJoint
	{
		OFFSET 0.000000 0.000000 0.000000
		CHANNELS 3 Zrotation Yrotation Xrotation
		JOINT LeftUpLeg
		{
			OFFSET 1.800000 -1.400000 0.085000
			CHANNELS 3 Zrotation Yrotation Xrotation
			JOINT LeftLeg
			{
				OFFSET 2.215000 -6.000000 0.000000
				CHANNELS 3 Zrotation Yrotation Xrotation
				JOINT LeftFoot
				{
					OFFSET 2.500000 -6.900000 0.000000
					CHANNELS 3 Zrotation Yrotation Xrotation
					JOINT LeftToeBase
					{
						OFFSET 0.200000 -0.500000 1.950000
						CHANNELS 3 Zrotation Yrotation Xrotation
						End Site
						{
							OFFSET 0.000000 0.000000 0.000000
						}
					}
				}
			}
		}
	}
	JOINT RHipJoint
	{
		OFFSET 0.000000 0.000000 0.000000
		CHANNELS 3 Zrotation Yrotation Xrotation
		JOINT RightUpLeg
		{
			OFFSET -1.800000 -1.400000 0.085000
			CHANNELS 3 Zrotation Yrotation Xrotation
			JOINT RightLeg
			{
				OFFSET -2.215000 -6.000000 0.000000
				CHANNELS 3 Zrotation Yrotation Xrotation
				JOINT RightFoot
				{
					OFFSET -2.500000 -6.900000 0.000000
					CHANNELS 3 Zrotation Yrotation Xrotation
					JOINT RightToeBase
					{
						OFFSET -0.200000 -0.500000 1.950000
						CHANNELS 3 Zrotation Yrotation Xrotation
						End Site
						{
							OFFSET 0.000000 0.000000 0.000000
						}
					}
				}
			}
		}
	}
	JOINT LowerBack
	{
		OFFSET 0.000000 0.000000 0.000000
		CHANNELS 3 Zrotation Yrotation Xrotation
		JOINT Spine
		{
			OFFSET -0.087000 1.940000 -0.288900
			CHANNELS 3 Zrotation Yrotation Xrotation
			JOINT Spine1
			{
				OFFSET 0.000000 1.950000 0.060000
				CHANNELS 3 Zrotation Yrotation Xrotation
				JOINT Neck
				{
					OFFSET 0.000000 0.000000 0.000000
					CHANNELS 3 Zrotation Yrotation Xrotation
					JOINT Neck1
					{
						OFFSET 0.000000 1.600000 0.340000
						CHANNELS 3 Zrotation Yrotation Xrotation
						JOINT Head
						{
							OFFSET 0.000000 1.667000 -0.240000
							CHANNELS 3 Zrotation Yrotation Xrotation
							End Site
							{
								OFFSET 0.000000 0.000000 0.000000
							}
						}
					}
				}
				JOINT LeftShoulder
				{
					OFFSET 0.000000 0.000000 0.000000
					CHANNELS 3 Zrotation Yrotation Xrotation
					JOINT LeftArm
					{
						OFFSET 2.700000 1.550000 -0.730000
						CHANNELS 3 Zrotation Yrotation Xrotation
						JOINT LeftForeArm
						{
							OFFSET 5.450000 0.000000 0.000000
							CHANNELS 3 Zrotation Yrotation Xrotation
							JOINT LeftHand
							{
								OFFSET 3.450000 0.000000 0.000000
								CHANNELS 3 Zrotation Yrotation Xrotation
								JOINT LeftHandIndex1
								{
									OFFSET 0.750000 0.000000 0.000000
									CHANNELS 3 Zrotation Yrotation Xrotation
									End Site
									{
										OFFSET 0.000000 0.000000 0.000000
									}
								}
							}
						}
					}
				}
				JOINT RightShoulder
				{
					OFFSET 0.000000 0.000000 0.000000
					CHANNELS 3 Zrotation Yrotation Xrotation
					JOINT RightArm
					{
						OFFSET -2.700000 1.550000 -0.730000
						CHANNELS 3 Zrotation Yrotation Xrotation
						JOINT RightForeArm
						{
							OFFSET -5.450000 0.000000 0.000000
							CHANNELS 3 Zrotation Yrotation Xrotation
							JOINT RightHand
							{
								OFFSET -3.450000 0.000000 0.000000
								CHANNELS 3 Zrotation Yrotation Xrotation
								JOINT RightHandIndex1
								{
									OFFSET -0.750000 0.000000 0.000000
									CHANNELS 3 Zrotation Yrotation Xrotation
									End Site
									{
										OFFSET 0.000000 0.000000 0.000000
									}
								}
							}
						}
					}
				}
			}
		}
	}
}
MOTION
Frames: 4
Frame Time: 0.016667
0.275410 16.095410 -4.153560 0.789939 -8.349211 1.526723 -15.459167 13.226130 3.198851 27.158578 2.151193 -27.541275 -0.438665 7.173261 21.431928 0.613807 5.058519 2.720769 0.262420 0.095200 0.091780 18.236260 -7.817266 4.536023 -21.639905 13.414029 -35.374811 31.898111 -20.095831 39.237936 -1.534038 -8.372115 1.545378 -0.425140 0.070680 0.152820 -3.170251 -5.229551 -8.652944 34.846820 -28.452398 49.356979 -22.793140 -4.134652 -21.421713 11.630225 -15.674901 -16.600653 -45.964951 18.352411 49.866934 -3.223800 -3.467830 -3.341440 -12.799607 7.527516 0.687810 -59.914664 32.538668 -18.992312 2.240849 14.287406 0.780202 -3.598089 2.483097 0.480990 -0.406380 0.397240 0.357050 -10.343461 13.575849 11.359715 32.481397 -4.610893 -18.899709 -135.004473 -21.645394 41.484303 3.558070 -2.346959 0.271290 0.147980 -0.245030 0.337940 
0.186710 16.140620 -4.203790 0.961157 -8.180885 2.283415 -15.470894 13.100668 3.385446 26.398244 1.803586 -30.303420 -0.372265 7.248891 23.513334 0.626161 5.083143 2.637374 0.343980 0.182220 0.193180 18.245511 -7.805045 4.525876 -19.831473 14.214128 -36.008507 29.783938 -18.880197 39.709992 -1.504821 -8.050988 1.606192 -0.415570 -0.060070 0.189130 -3.167947 -5.125695 -8.750645 31.424060 -26.266076 51.365042 -22.228706 -2.810045 -23.443832 11.253097 -14.177630 -17.265820 -44.274263 18.206099 52.754502 -2.216200 -3.255970 -3.193000 -9.919072 4.982985 3.077862 -61.679681 33.236216 -19.860612 5.664756 13.478923 1.491069 -3.557402 2.601426 0.505030 -0.456280 0.476310 0.320140 -11.399449 14.836875 9.819480 33.059758 -6.125973 -22.237412 -144.522049 -34.305171 78.493669 3.791494 -2.332812 0.351590 0.046470 -0.296400 0.306640 
0.110930 16.210400 -4.276710 0.629770 -8.828984 1.949341 -15.543329 12.864081 3.806619 26.972339 1.652447 -33.899422 -0.793544 8.486932 29.897997 0.718478 6.033204 2.291672 0.319590 0.150130 0.197090 18.238812 -7.723810 4.342267 -16.905769 15.111984 -35.203067 26.828150 -17.349888 40.490746 -1.408422 -7.695652 1.721121 -0.427640 -0.073780 0.176500 -3.088587 -5.038578 -8.919744 26.450477 -23.933153 55.689054 -19.967584 -1.571554 -24.549179 10.685779 -13.558379 -17.972911 -42.800471 18.428128 52.682937 -0.185610 -2.859760 -0.348000 -7.633502 3.300020 4.799568 -65.621799 33.385326 -21.489585 10.036678 8.102541 1.712985 -3.505798 2.657491 0.510200 -0.444760 0.469900 0.302970 -11.885834 16.179240 9.329840 31.950955 -5.823859 -23.333834 -151.760367 -38.601122 97.570306 3.850013 -2.339866 0.333040 0.011540 -0.301960 0.279670 
0.032180 16.285300 -4.395550 1.426350 -9.720105 -1.428781 -15.556923 12.650271 4.135222 27.186665 1.067694 -35.459583 -1.994533 10.504278 38.435919 0.900702 7.526316 1.832751 0.226060 0.062800 0.104570 18.256020 -7.883499 4.010597 -14.464154 15.285165 -32.113646 23.648839 -15.958610 42.007367 -1.341717 -7.496990 1.817141 -0.468950 0.018740 0.141530 -3.116168 -4.629515 -8.977260 19.270532 -21.393766 63.115209 -15.835067 -1.321855 -22.543867 8.939212 -14.449260 -18.085954 -44.960396 17.708585 48.323149 3.054730 -4.117080 -4.759500 -5.136815 1.709612 6.247815 -68.297900 31.197168 -22.583775 9.695187 2.525548 0.814589 -3.443553 2.589869 0.541440 -0.444210 0.432240 0.292630 -10.957978 17.202054 8.914095 28.409516 -2.089880 -22.607357 -158.484858 -34.335761 100.622847 3.790687 -2.384849 0.269640 0.107270 -0.226640 0.296850 
